<svg width="32" height="32" viewBox="0 0 32 32" fill="none" xmlns="http://www.w3.org/2000/svg">
<g clip-path="url(#clip0_2_917)">
<path d="M16.0013 6.03864C19.1333 3.22664 23.9733 3.31997 26.9907 6.34264C30.0067 9.36664 30.1107 14.1826 27.3053 17.324L15.9987 28.6466L4.69466 17.324C1.88933 14.1826 1.99466 9.35864 5.00933 6.34264C8.02933 3.32397 12.86 3.22264 16.0013 6.03864V6.03864ZM25.1027 8.22664C23.1027 6.22397 19.876 6.14264 17.7827 8.02264L16.0027 9.61997L14.2213 8.02397C12.1213 6.14131 8.90133 6.22397 6.896 8.22931C4.90933 10.216 4.80933 13.396 6.64 15.4973L16 24.872L25.36 15.4986C27.192 13.396 27.092 10.22 25.1027 8.22664V8.22664Z" fill="white" stroke="#2B2B2B" stroke-width="0.5"/>
</g>
<defs>
<clipPath id="clip0_2_917">
<rect width="32" height="32" fill="white"/>
</clipPath>
</defs>
</svg>
