<svg width="32" height="32" viewBox="0 0 32 32" fill="none" xmlns="http://www.w3.org/2000/svg">
<g clip-path="url(#clip0_2_916)">
<path d="M14.6667 2.66663C21.2907 2.66663 26.6667 8.04263 26.6667 14.6666C26.6667 21.2906 21.2907 26.6666 14.6667 26.6666C8.04266 26.6666 2.66666 21.2906 2.66666 14.6666C2.66666 8.04263 8.04266 2.66663 14.6667 2.66663ZM14.6667 24C19.8227 24 24 19.8226 24 14.6666C24 9.50929 19.8227 5.33329 14.6667 5.33329C9.50933 5.33329 5.33333 9.50929 5.33333 14.6666C5.33333 19.8226 9.50933 24 14.6667 24ZM25.98 24.0946L29.752 27.8653L27.8653 29.752L24.0947 25.98L25.98 24.0946Z" fill="white" stroke="#2B2B2B" stroke-width="0.5"/>
</g>
<defs>
<clipPath id="clip0_2_916">
<rect width="32" height="32" fill="white"/>
</clipPath>
</defs>
</svg>
