<svg width="32" height="32" viewBox="0 0 32 32" fill="none" xmlns="http://www.w3.org/2000/svg">
<g clip-path="url(#clip0_2_918)">
<path d="M26.6667 29.3334H24V26.6667C24 25.6058 23.5786 24.5884 22.8284 23.8383C22.0783 23.0881 21.0609 22.6667 20 22.6667H12C10.9391 22.6667 9.92172 23.0881 9.17157 23.8383C8.42143 24.5884 8 25.6058 8 26.6667V29.3334H5.33333V26.6667C5.33333 24.8986 6.03571 23.2029 7.28596 21.9527C8.5362 20.7024 10.2319 20 12 20H20C21.7681 20 23.4638 20.7024 24.714 21.9527C25.9643 23.2029 26.6667 24.8986 26.6667 26.6667V29.3334ZM16 17.3334C14.9494 17.3334 13.9091 17.1264 12.9385 16.7244C11.9679 16.3224 11.086 15.7331 10.3431 14.9902C9.60028 14.2474 9.011 13.3654 8.60896 12.3948C8.20693 11.4242 8 10.3839 8 9.33337C8 8.2828 8.20693 7.24251 8.60896 6.27191C9.011 5.3013 9.60028 4.41939 10.3431 3.67652C11.086 2.93365 11.9679 2.34438 12.9385 1.94234C13.9091 1.5403 14.9494 1.33337 16 1.33337C18.1217 1.33337 20.1566 2.17623 21.6569 3.67652C23.1571 5.17681 24 7.21164 24 9.33337C24 11.4551 23.1571 13.4899 21.6569 14.9902C20.1566 16.4905 18.1217 17.3334 16 17.3334ZM16 14.6667C17.4145 14.6667 18.771 14.1048 19.7712 13.1046C20.7714 12.1044 21.3333 10.7479 21.3333 9.33337C21.3333 7.91889 20.7714 6.56233 19.7712 5.56214C18.771 4.56194 17.4145 4.00004 16 4.00004C14.5855 4.00004 13.229 4.56194 12.2288 5.56214C11.2286 6.56233 10.6667 7.91889 10.6667 9.33337C10.6667 10.7479 11.2286 12.1044 12.2288 13.1046C13.229 14.1048 14.5855 14.6667 16 14.6667Z" fill="white" stroke="#2B2B2B" stroke-width="0.5"/>
</g>
<defs>
<clipPath id="clip0_2_918">
<rect width="32" height="32" fill="white"/>
</clipPath>
</defs>
</svg>
